<?xml version="1.0" encoding="UTF-8"?>
<!DOCTYPE svg PUBLIC "-//W3C//DTD SVG 1.1//EN" "http://www.w3.org/Graphics/SVG/1.1/DTD/svg11.dtd">
<!-- Creator: CorelDRAW -->
<svg xmlns="http://www.w3.org/2000/svg" xml:space="preserve" width="453.87mm" height="106.689mm" version="1.1" style="shape-rendering:geometricPrecision; text-rendering:geometricPrecision; image-rendering:optimizeQuality; fill-rule:evenodd; clip-rule:evenodd"
viewBox="0 0 26926.61 6329.51"
 xmlns:xlink="http://www.w3.org/1999/xlink"
 xmlns:xodm="http://www.corel.com/coreldraw/odm/2003">
 <defs>
  <style type="text/css">
   <![CDATA[
    .fil1 {fill:#2D3277}
    .fil0 {fill:#FFE600}
    .fil2 {fill:white}
   ]]>
  </style>
 </defs>
 <g id="Capa_x0020_1">
  <metadata id="CorelCorpID_0Corel-Layer"/>
  <g id="_2616365362656">
   <path class="fil0" d="M-0 3164.76c0,409.15 114.42,966.89 294.69,1322.85 13.37,26.4 20.02,39.83 32.56,67.91 14.64,32.75 20.13,38.6 34.49,65.98 23.93,45.63 46.55,86.81 70.27,130.67 213.55,394.86 620.15,801.4 984.59,1044.87 163.05,108.93 337.19,200.94 529.66,284.13 93.47,40.4 198.99,75.89 295.36,106.5 106.53,33.84 216.48,57.72 331.13,80.79 223.91,45.04 485.35,61.05 752.74,61.05l20264.49 0c583.7,0 956.09,-75.45 1374.98,-242.56 363.22,-144.9 721.5,-382.05 978.49,-639.05 128.19,-128.18 176.95,-170.5 290.17,-312.65l246.69 -356.13c70.3,-117.32 153.63,-277.03 205.66,-407.19 18.9,-47.28 36.56,-90.35 54.95,-145.99 205.85,-622.67 243.46,-1155.04 98.19,-1798.61 -101.69,-450.5 -352.9,-948.32 -659.28,-1299.86 -20.1,-23.06 -22.94,-32.14 -45.3,-55.17 -20.25,-20.84 -30,-27.59 -48.69,-51.78 -33.36,-43.2 -59.77,-66.24 -97.17,-103.76l-206.24 -185.6c-34.91,-30.52 -68.81,-55.27 -105.73,-85.16 -21.19,-17.16 -37.71,-26.12 -58.79,-41.69l-173.23 -118.12c-441.03,-295.19 -1093.86,-486.21 -1683.91,-486.21l-20575.94 0c-371.22,0 -698.13,56.89 -1020.99,164.54 -143.33,47.79 -286.72,107.73 -419.07,173.7l-255.92 145.96c-318,200.13 -400.85,292.87 -647.47,538.06 -38.28,38.06 -59.2,66.62 -95.42,105.52 -31.4,33.72 -59.87,73.77 -88.66,112.28l-161.84 229.99c-112.34,190.12 -106.84,175.49 -210.83,391.98 -83.82,174.51 -152.9,382.89 -200.41,593.29 -47.16,208.85 -84.26,489.99 -84.26,709.44z"/>
   <path class="fil1" d="M3898.18 4822.48c597.43,0 1184.09,-128.68 1615.31,-394.18 96.02,-59.12 216.59,-141.16 283.25,-209 82.34,-83.78 164.82,-154.08 239.36,-262.75 220.42,-321.31 255.75,-520.38 255.75,-912.36 0,-493.35 -411.19,-905.75 -801.11,-1130.51 -923.12,-532.12 -2306.22,-529.21 -3209.69,25.77 -211.43,129.87 -391.37,283.05 -525.63,469.03 -156.43,216.68 -238.82,437.46 -232.35,776.37 11.84,619.58 403.88,1004.1 768.28,1234.82 418.53,264.98 1018.19,402.82 1606.84,402.82z"/>
   <path class="fil0" d="M6198.48 3009.09c-338.08,60.69 -647.65,188.43 -945.33,291.96 68.57,224.53 -37.14,341.52 -265.3,340.52 -21.64,177.89 -159.35,255.37 -314.46,238.12 -25.9,102.34 -159.44,219.59 -302.28,172.6 -35.76,22.03 -60.44,86.93 -201.37,92.02 -112.17,4.05 -160.41,-37.14 -241.42,-64.23 -63.24,47.14 -134.93,98.5 -254.91,72.6 -120.04,-25.91 -140.92,-85.95 -197.2,-157.8 -145.23,17.79 -269.47,-40.55 -297.05,-143.65 -184.35,17.47 -268.58,-71.24 -316.87,-211.45 -110.6,7.72 -168.23,-24.25 -219.67,-83.49 -65.69,-75.65 -54.53,-136.67 -37.94,-242.78l-214.42 -107.55c-79.97,-32.95 -157.82,-60.38 -244.1,-87.39 -158.73,-49.7 -359.93,-104.33 -525.84,-133.67 -44.34,586.27 390.45,971.47 732.55,1172.4 1478.69,868.47 3921.66,193.45 3845.62,-1148.21z"/>
   <path class="fil2" d="M1637.59 2882.81c170.68,36.9 374.35,92.38 539.83,144.01 114.13,35.6 259.89,90.86 366.01,145.99 40.87,21.23 80.62,49.88 118.98,65.38 170.42,-108.32 214.85,-64.46 341.59,18.84 91.91,-40.37 183.18,-70.08 295.34,-5.8 65.13,37.32 51.15,53.33 97.06,91.24l79.79 -11.92c167.12,0 248.69,116.97 248.69,278.76 118.43,7.41 177.9,51.35 228.08,113.69 70.25,87.31 53.81,165.18 33.47,275.65 80.87,58.77 219.43,74.63 293.47,13.13 -34.43,-80.19 -205.95,-191.06 -202.14,-275.6 55.77,-10.16 75.01,26.22 109.45,53.84 98.47,78.95 196.46,264.7 344.58,148.9 108.85,-85.09 -30.71,-179.43 -105.4,-267.31 -55.77,-65.62 -114.75,-113.3 -111.96,-160.92 55.93,-26.02 91.05,35.03 125.79,66.21 44.51,39.95 77.28,69.03 119.77,111.55 24.16,24.18 86.04,92.47 132.59,100.42 71.1,12.14 138.75,-26.03 169.35,-62.4 102.39,-121.68 -99.83,-263.04 -234.16,-397.13 -48.85,-48.77 -110.93,-94.62 -84.78,-123.19 43.53,-32.17 118.59,63.68 149.1,88.79 48,39.51 253.75,233.93 286.61,245.96 84.89,31.06 166.42,-16.75 194.5,-65.95 67.8,-118.83 -114.2,-218.72 -204.53,-305.78 -48.33,-46.57 -97.77,-81.94 -145.51,-125.83 -137.85,-126.73 -619.04,-557.77 -760.69,-585.71 -268.29,-52.93 -434.6,335.39 -736.96,335.39 -114.49,0 -360.82,-76.99 -245.05,-214.71l240.67 -263.14c-115.71,16.5 -219.61,70.95 -347.25,70.95 -191.67,0 -501.57,-94.41 -688.05,-160.99 -126.4,-45.12 -152.83,-79.6 -199.8,-39.23 -148.56,127.68 -410.93,405.77 -448.43,696.92z"/>
   <path class="fil2" d="M3151.6 2642.32c27.79,50.71 98.94,60.28 163.86,60.28 182.09,0 293.58,-166.06 482.09,-281.62 302.47,-185.43 491.25,50.14 753.07,262.35 56.31,45.64 590.63,504.83 619.79,543.56l491.03 -177.66c163.4,-53.54 344.47,-107.96 520.62,-142.44 7.65,-103.01 -117.86,-337.4 -163.68,-405.49 -79.99,-118.9 -176.66,-225.25 -281.64,-305.53 -243.97,80.52 -370.44,157.69 -673.14,157.69 -490.13,0 -641.43,-251.17 -1064.97,-251.17 -334.01,0 -499.28,164.63 -677.61,354.88 -40.63,43.34 -141.27,140.14 -169.43,185.15z"/>
   <path class="fil0" d="M2208.81 2099.99c251.87,75.54 628.46,244.88 912.95,167.54 71.97,-19.57 146.99,-43.19 227.03,-54.45 54.73,-7.7 79.64,0.34 115.62,-24.54 32.75,-22.66 50.61,-37.33 82.97,-58.02 145.05,-92.77 300.85,-121.57 491.45,-121.57 447.2,0 686.46,375.47 1345.3,209.82 97.76,-24.58 181.33,-65.31 265.68,-87.49 -24.08,-31.23 -128.59,-95.63 -161.36,-114.79 -755.46,-441.49 -1736.46,-513.06 -2568.23,-261.53 -173.89,52.59 -610.8,231.13 -711.41,345.03z"/>
   <path class="fil1" d="M13146.32 2074.69c-23.31,-39.07 -91.32,-96.25 -143.84,-117.35 -70.74,-28.42 -150.63,-32.14 -230.64,-15.66 -429.26,88.41 -474.55,879.16 -78.68,1028.18 249.68,93.99 628.2,51.02 713.37,-283.09 27.02,-105.99 23.5,-927.9 11.72,-1074.95 -105.41,-15.76 -222.18,28.65 -255.54,107.05 -28.95,68.03 -6.48,265.28 -16.39,355.81z"/>
   <path class="fil1" d="M8222.7 3643.21l-1.97 -470.92c-280.44,-20.07 -273.79,152.29 -273.68,303.92 0.14,190.88 0.22,381.79 -0.01,572.67 -0.24,205.86 26.86,312.33 150.76,421.75 161.77,142.89 658.6,174.7 795.6,-148.14 104.02,-245.13 63.75,-690.73 -249.84,-799.41 -177.97,-61.67 -354.1,13.8 -420.87,120.14z"/>
   <path class="fil1" d="M13895.36 1935.27c-605.34,112.46 -530.72,1208.03 249.31,1067.43 608.31,-109.65 524.23,-1211.14 -249.31,-1067.43z"/>
   <path class="fil1" d="M7022.74 2988.92l248.73 -0.77c-0.01,-167.46 0.01,-331.99 -0.02,-496.53 -0.02,-165.26 6.31,-306.48 183.28,-309.17 177.65,-2.71 178.41,146.56 178.35,309.17 -0.07,165.76 -0.01,331.54 -0.01,497.3l246.15 0c0,-114.37 -19.22,-626.96 23.15,-713.06 24.45,-49.68 79.44,-91.41 156.11,-93.37 183.17,-4.69 185,136.41 184.96,299.09 -0.05,169.12 0,338.23 0,507.35l248.64 0c0,-248.35 43.59,-717.35 -78.64,-893.62 -150.56,-217.12 -480.42,-219.5 -655.38,-28.16 -151.89,-209.38 -508.67,-169.88 -654.27,33.16 -78.45,109.4 -81.08,245.03 -81.08,401.37 0.01,162.42 0,324.84 0,487.26z"/>
   <path class="fil1" d="M9588.45 2710.14c-62.28,0 -212.76,-7.94 -264.87,0.78 -59.78,10.01 -52.19,72.57 -181.32,79.27 -82.08,4.26 -155.12,-16.71 -200.45,-57.59 -31.9,-28.76 -83.51,-116.73 -66.67,-185.75l734.35 0c0.3,-164.44 -8.15,-297.99 -87.41,-414.88 -207.79,-306.42 -811.91,-282.79 -909.12,181.58 -60.1,287.08 8.5,560.77 300.93,668.4 264.03,97.18 621.96,-21.04 674.56,-271.82z"/>
   <path class="fil1" d="M11473.49 2285.64l241.13 0c33.28,-8.26 18.76,-57.17 66.03,-99.93 87.38,-79.05 363.37,-38.09 287.14,105.98 -64.17,121.28 -574.34,-6.37 -624.33,351.18 -14.8,105.8 7.23,206.33 65.32,265.68 57.64,58.88 113.65,88.55 224.58,99.59 92.15,9.18 208.63,3.64 299.56,-16.83 173.29,-38.99 298.12,-139.74 311.11,-330.43 10.51,-154.17 23.1,-490.87 -48.99,-598.9 -107.54,-161.15 -798.66,-272.05 -821.56,223.66z"/>
   <path class="fil1" d="M10627.1 4272.37c-57.42,-5.53 -192.27,-7.55 -249.4,-3 -78.68,6.26 -42.97,65.51 -180.1,80.84 -184.15,20.58 -271.61,-75.13 -285.71,-243.51l733.42 -0.15c25.56,-320.98 -111.77,-552.27 -389.35,-598.62 -569.8,-95.15 -708.06,475.47 -562.89,804.08 109.55,247.97 467.38,317.81 694.24,218.23 100.59,-44.15 209.31,-141.71 239.79,-257.88z"/>
   <path class="fil1" d="M23891.97 2779.2c-593.13,120.94 -439.91,1039.74 204.81,911.91 236.55,-46.9 413.46,-265.53 356.51,-555.41 -46.16,-234.89 -264.42,-417.04 -561.31,-356.5z"/>
   <path class="fil1" d="M21166.16 2777.97c-593.25,113.25 -449.19,1036.78 198.93,913.7 235.51,-44.73 413.47,-265.17 360.03,-550.64 -45.14,-241.15 -266.85,-418.82 -558.96,-363.06z"/>
   <path class="fil1" d="M11354.25 2604.59l-283.96 0c-30.72,106.73 -71.23,223.5 -255.73,173.97 -115.34,-30.96 -152.2,-158.39 -152.54,-297.04 -0.7,-287.46 167.59,-373.66 317.63,-300.28 50.03,24.47 78.36,70.69 88.85,144.58l291.5 0c-35.04,-327.29 -273.23,-425.25 -572.33,-388.19 -276.66,34.28 -420.23,242.37 -422.03,543.94 -3.88,646.48 653.86,582.12 820.75,436.16 70.56,-61.71 169.37,-170.11 167.86,-313.14z"/>
   <path class="fil1" d="M17599.56 3647l2.36 37.79 188.61 -0.05 3.03 -575.27 377.22 511.51c61.11,86.07 52.23,63.76 232.59,63.76 10.43,-133.19 2.56,-723.77 2.46,-901.76l-193.4 0 0 553.77c-26.89,-18.63 -176.54,-231.28 -211.6,-279.56 -31.16,-42.9 -183.73,-267.08 -217.89,-274.21l-183.36 0 0 864.03z"/>
   <path class="fil2" d="M2942.51 3507.57c25.45,110.73 -13.18,158.24 79.02,222.37 119.65,83.22 142.4,4.47 221.75,-0.71 14.24,93.11 16.81,129.24 95.47,165.71 117.83,54.63 130.57,-20.11 196.54,-33.85 19.14,36.35 10.87,148.41 125.4,194.33 96.96,38.88 181.5,-6.45 225.1,-69.23 52.08,-75.01 29.59,-182.54 -22.77,-233.69 -95.94,-93.7 -145.4,-31.48 -247.4,-33.27 2.41,-93.23 61.59,-192.8 -29.23,-262.63 -119.01,-91.51 -212.18,7.62 -250.83,10.2 -40.62,-84.74 -29.86,-155.04 -161.27,-160.91 -113.16,-5.05 -147.88,63.18 -200.41,116.67 -32.88,-68.06 -8.23,-121.21 -107.04,-150.61 -173.77,-51.72 -252.54,177.54 -119.44,259.93 97.98,60.65 146.13,-15.69 195.12,-24.32z"/>
   <path class="fil1" d="M20550.8 3184.85l-431.98 0 0 170.8 238.54 0 -0.78 110.5c-100.42,50.33 -201.16,102.17 -329.01,26.19 -81.6,-48.5 -152.72,-143.95 -139.83,-287.87 27.93,-311.73 407.55,-322.67 484.14,-146.45l165.27 -82.52c-68.96,-177.94 -363.84,-263.35 -591.88,-159.91 -438.44,198.87 -303.05,943.21 279.49,884 117.2,-11.91 225.65,-65.44 286.19,-127.49 57,-58.42 39.97,-76.11 39.86,-176.27 -0.08,-70.33 -0.01,-140.66 -0.01,-210.98z"/>
   <polygon class="fil1" points="18770.08,3682.86 19406.19,3683.35 19408.28,3516.97 18967.24,3513.69 18963.45,3313 19396.15,3311.62 19398.23,3145.23 18967.24,3141.96 18963.45,2953.77 19408.08,2951.89 19408.05,2785.43 18770.02,2783.09 "/>
   <path class="fil1" d="M24775.52 3414.95c-29.46,23.7 -30.26,33.81 -54.22,67.27 -21.75,30.38 -38.88,44.83 -49.37,88.18 100.22,49.87 235.31,185.52 514.13,115.21 221.42,-55.84 269.46,-267.38 193.08,-401.25 -35.79,-62.74 -104.14,-98.63 -193.47,-127.82 -69.58,-22.74 -205.1,-42.88 -255.93,-75.62 -35.1,-22.61 -48.59,-68.81 -13.67,-106.9 25.72,-28.07 80.82,-35.15 130.96,-32.64 127.44,6.35 162.63,55.17 244.65,95.9 24.24,-53.18 75.21,-89.32 97.95,-147.55 -145.52,-100.51 -329.3,-165.65 -515.9,-89.22 -182.85,74.9 -342.78,410.02 121.51,516.48 77.1,17.67 211.1,34.02 217.96,111.21 8.07,90.81 -123.71,111.14 -207.42,99.63 -127.68,-17.56 -156.87,-67.35 -230.26,-112.89z"/>
   <path class="fil1" d="M22812.67 3479.31l-164.07 -81.46c-144.48,239.93 -492.74,128.03 -492.77,-162.77 -0.01,-136.23 79.55,-236.11 175.95,-273.74 155.14,-60.56 262.57,23.12 316.29,109.89l165.18 -79.78c-207.93,-387.18 -856.18,-249.78 -856.18,243.63 0,508.13 674.21,620.21 855.59,244.23z"/>
   <path class="fil1" d="M7022.74 4546.18l253.69 0 0 -1373.89c-327.33,2.25 -253.69,229.43 -253.69,555.09 0,272.93 0,545.86 0,818.8z"/>
   <path class="fil1" d="M9732.88 2431.34l0 557.58 271.4 -2.83c-0.08,-168.61 -1.47,-336.92 -0.25,-504.6 1.93,-265.55 133.27,-283.75 324.17,-271.76l-0.97 -275.77c-339.15,-23.55 -594.35,167.76 -594.35,497.37z"/>
   <path class="fil1" d="M9022.06 4008.69l1.88 540.11 266.87 -0.04c36.81,-380.94 -111.1,-785.29 253.68,-776.14l71.63 3.6 -3.36 -275.2c-343.36,-25.57 -590.7,177.68 -590.7,507.67z"/>
   <polygon class="fil1" points="16002.11,4546.18 16085.01,4546.18 16122.81,4543.35 16122.73,1917.64 16085.07,1913.2 16002.11,1913.94 "/>
   <polygon class="fil1" points="7479.91,4544.99 7751.82,4548.72 7753.75,3528.9 7479.83,3527.16 "/>
   <path class="fil0" d="M21197.63 2949.44c-333.47,81.29 -245.36,654.01 127.63,572.42 333.81,-73.01 248.31,-664.07 -127.63,-572.42z"/>
   <path class="fil0" d="M23924.09 2951.32c-343.55,93.37 -226.76,667.33 141.32,567.83 326.58,-88.28 225.45,-667.52 -141.32,-567.83z"/>
   <path class="fil0" d="M13982.73 2155.08c-161.81,23.64 -212.56,172.87 -204,345.5 8.57,172.65 87.84,306.29 276.87,283.95 295.42,-34.91 281.73,-681.27 -72.87,-629.45z"/>
   <path class="fil0" d="M12868.19 2175.83c-136.9,36.39 -178.1,199.98 -162.24,359.88 15.95,160.85 94.31,292.98 283.03,246.64 259.19,-63.65 222.2,-697.69 -120.79,-606.53z"/>
   <path class="fil0" d="M8390.39 3744.37c-136.01,37.1 -189.88,181.28 -175.58,348.4 13.51,157.92 97.64,284.97 272.6,255.24 268.44,-45.61 239.86,-695.54 -97.02,-603.64z"/>
   <polygon class="fil1" points="23060.09,3682.86 23252.23,3684.01 23253.49,2787.97 23059.97,2783.05 "/>
   <path class="fil0" d="M12076.31 2582.04l-3.23 -96.22c-88.49,60.41 -294.28,36.67 -346.13,128.38 -71.39,126.27 49.26,258.52 231.97,172.09 77.28,-36.56 117.39,-93.49 117.39,-204.26z"/>
   <path class="fil0" d="M8876.37 2366.05l452.77 2.4c-14.6,-282.15 -419.9,-293.48 -452.77,-2.4z"/>
   <path class="fil0" d="M9919.36 3927.04l450.83 3.96c-14.13,-130.09 -87.92,-211.1 -223.26,-211.5 -141.68,-0.42 -203.9,80.95 -227.57,207.54z"/>
   <polygon class="fil1" points="7479.89,3438.54 7715.98,3438.54 7753.76,3436.18 7753.71,3173.49 7716.05,3169.06 7480.19,3169.8 "/>
  </g>
 </g>
</svg>
