<?xml version="1.0" encoding="UTF-8"?>
<!DOCTYPE svg PUBLIC "-//W3C//DTD SVG 1.1//EN" "http://www.w3.org/Graphics/SVG/1.1/DTD/svg11.dtd">
<!-- Creator: CorelDRAW -->
<svg xmlns="http://www.w3.org/2000/svg" xml:space="preserve" width="453.87mm" height="106.689mm" version="1.1" style="shape-rendering:geometricPrecision; text-rendering:geometricPrecision; image-rendering:optimizeQuality; fill-rule:evenodd; clip-rule:evenodd"
viewBox="0 0 26926.61 6329.51"
 xmlns:xlink="http://www.w3.org/1999/xlink"
 xmlns:xodm="http://www.corel.com/coreldraw/odm/2003">
 <defs>
  <style type="text/css">
   <![CDATA[
    .fil0 {fill:#FFE600}
    .fil3 {fill:#FEFEFE;fill-rule:nonzero}
    .fil1 {fill:#453E75;fill-rule:nonzero}
    .fil2 {fill:#EED337;fill-rule:nonzero}
   ]]>
  </style>
 </defs>
 <g id="Capa_x0020_1">
  <metadata id="CorelCorpID_0Corel-Layer"/>
  <path class="fil0" d="M-0 3164.76c0,409.15 114.42,966.89 294.69,1322.85 13.37,26.4 20.02,39.83 32.56,67.91 14.64,32.75 20.13,38.6 34.49,65.98 23.93,45.63 46.55,86.81 70.27,130.67 213.55,394.86 620.15,801.4 984.59,1044.87 163.05,108.93 337.19,200.94 529.66,284.13 93.47,40.4 198.99,75.89 295.36,106.5 106.53,33.84 216.48,57.72 331.13,80.79 223.91,45.04 485.35,61.05 752.74,61.05l20264.49 0c583.7,0 956.09,-75.45 1374.98,-242.56 363.22,-144.9 721.5,-382.05 978.49,-639.05 128.19,-128.18 176.95,-170.5 290.17,-312.65l246.69 -356.13c70.3,-117.32 153.63,-277.03 205.66,-407.19 18.9,-47.28 36.56,-90.35 54.95,-145.99 205.85,-622.67 243.46,-1155.04 98.19,-1798.61 -101.69,-450.5 -352.9,-948.32 -659.28,-1299.86 -20.1,-23.06 -22.94,-32.14 -45.3,-55.17 -20.25,-20.84 -30,-27.59 -48.69,-51.78 -33.36,-43.2 -59.77,-66.24 -97.17,-103.76l-206.24 -185.6c-34.91,-30.52 -68.81,-55.27 -105.73,-85.16 -21.19,-17.16 -37.71,-26.12 -58.79,-41.69l-173.23 -118.12c-441.03,-295.19 -1093.86,-486.21 -1683.91,-486.21l-20575.94 0c-371.22,0 -698.13,56.89 -1020.99,164.54 -143.33,47.79 -286.72,107.73 -419.07,173.7l-255.92 145.96c-318,200.13 -400.85,292.87 -647.47,538.06 -38.28,38.06 -59.2,66.62 -95.42,105.52 -31.4,33.72 -59.87,73.77 -88.66,112.28l-161.84 229.99c-112.34,190.12 -106.84,175.49 -210.83,391.98 -83.82,174.51 -152.9,382.89 -200.41,593.29 -47.16,208.85 -84.26,489.99 -84.26,709.44z"/>
  <g id="_2652081037712">
   <polygon class="fil1" points="13871.36,4327.61 13970.73,4327.61 13970.73,2103.66 13871.36,2103.66 "/>
   <path class="fil1" d="M15170.62 3198.92c0,-239.05 180.77,-402.21 413.89,-402.21 171.36,0 270.36,93.3 325.2,190.04l-142.21 69.96c-32.72,-63.04 -102.68,-113.17 -182.99,-113.17 -141.13,0 -243.61,108.54 -243.61,255.38 0,146.83 102.47,255.38 243.61,255.38 80.32,0 150.27,-49.15 182.99,-113.17l142.21 68.78c-56.06,96.74 -153.85,191.22 -325.2,191.22 -233.12,0 -413.89,-163.26 -413.89,-402.22z"/>
   <path class="fil1" d="M16491.82 2943.61c-143.39,0 -235.51,109.59 -235.51,255.38 0,144.44 92.12,255.25 235.51,255.25 143.36,0 236.56,-110.81 236.56,-255.25 0,-145.79 -93.2,-255.38 -236.56,-255.38zm0 -146.83c235.48,0 406.83,167.92 406.83,402.22 0,234.16 -171.35,402.08 -406.83,402.08 -234.33,0 -405.69,-167.92 -405.69,-402.08 0,-234.3 171.35,-402.22 405.69,-402.22z"/>
   <polygon class="fil1" points="17295.37,3080.06 17295.37,3587.11 17129.75,3587.11 17129.75,2809.56 17300.03,2809.56 17660.11,3298.06 17660.11,2809.56 17825.76,2809.56 17825.76,3587.11 17665.94,3587.11 "/>
   <path class="fil1" d="M18131.51 3351.63c54.85,57 139.92,104.94 247.15,104.94 90.91,0 135.19,-42 135.19,-86.39 0,-57.01 -72.35,-73.43 -157.32,-94.35 -127.1,-29.18 -290.36,-64.16 -290.36,-241.35 0,-129.33 111.99,-236.56 294.98,-236.56 123.66,0 226.1,37.25 303.11,108.41l-92.12 121.13c-62.94,-58.19 -146.83,-84.97 -226.1,-84.97 -71.14,0 -110.77,31.44 -110.77,78.09 0,50.09 71.17,66.38 155.06,86.15 128.15,30.33 291.41,68.88 291.41,244.89 0,142.18 -101.5,249.55 -311.28,249.55 -149.22,0 -256.32,-50.23 -328.68,-123.66l89.73 -125.89z"/>
   <polygon class="fil1" points="19079.53,2955.25 18852.25,2955.25 18852.25,2809.46 19472.33,2809.46 19472.33,2955.25 19246.13,2955.25 19246.13,3587.11 19079.53,3587.11 "/>
   <path class="fil1" d="M20032.21 2955.25l-173.75 0 0 209.91 173.75 0c66.52,0 116.48,-39.64 116.48,-104.97 0,-65.31 -49.96,-104.94 -116.48,-104.94zm-52.39 355.56l-121.36 0 0 276.3 -165.52 0 0 -777.65 363.76 0c161.97,0 261.08,106.15 261.08,250.73 0,137.55 -86.25,210.99 -170.14,230.76l174.8 296.16 -189.91 0 -152.7 -276.3z"/>
   <path class="fil1" d="M20557.1 2809.5l167.92 0 0 461.72c0,108.41 62.81,183.03 182.89,183.03 120.18,0 181.95,-74.62 181.95,-183.03l0 -461.72 168.96 0 0 466.37c0,193.49 -114.22,325.21 -350.91,325.21 -236.56,0 -350.81,-132.9 -350.81,-324.03l0 -467.55z"/>
   <path class="fil1" d="M21488.87 3198.92c0,-239.05 180.77,-402.21 413.85,-402.21 171.36,0 270.39,93.3 325.24,190.04l-142.21 69.96c-32.72,-63.04 -102.68,-113.17 -183.03,-113.17 -141.1,0 -243.58,108.54 -243.58,255.38 0,146.83 102.48,255.38 243.58,255.38 80.35,0 150.31,-49.15 183.03,-113.17l142.21 68.78c-56.06,96.74 -153.88,191.22 -325.24,191.22 -233.08,0 -413.85,-163.26 -413.85,-402.22z"/>
   <path class="fil1" d="M22404.34 3198.92c0,-239.05 180.77,-402.21 413.89,-402.21 171.36,0 270.36,93.3 325.2,190.04l-142.18 69.96c-32.72,-63.04 -102.71,-113.17 -183.03,-113.17 -141.13,0 -243.57,108.54 -243.57,255.38 0,146.83 102.44,255.38 243.57,255.38 80.32,0 150.31,-49.15 183.03,-113.17l142.18 68.78c-56.03,96.74 -153.85,191.22 -325.2,191.22 -233.12,0 -413.89,-163.26 -413.89,-402.22z"/>
   <polygon class="fil1" points="23356.99,2809.56 23522.5,2809.56 23522.5,3587.11 23356.99,3587.11 "/>
   <path class="fil1" d="M24085.79 2744.33l156.11 -167.92 136.48 0 -188.82 167.92 -103.76 0zm73.4 199.32c-143.39,0 -235.38,109.59 -235.38,255.25 0,144.57 91.99,255.35 235.38,255.35 143.39,0 236.56,-110.77 236.56,-255.35 0,-145.65 -93.17,-255.25 -236.56,-255.25zm0 -146.97c235.51,0 406.87,168.02 406.87,402.22 0,234.3 -171.36,402.21 -406.87,402.21 -234.3,0 -405.65,-167.91 -405.65,-402.21 0,-234.2 171.35,-402.22 405.65,-402.22z"/>
   <polygon class="fil1" points="24962.81,3080.06 24962.81,3587.11 24797.28,3587.11 24797.28,2809.56 24967.56,2809.56 25327.65,3298.06 25327.65,2809.56 25493.3,2809.56 25493.3,3587.11 25333.48,3587.11 "/>
   <path class="fil1" d="M5486.49 3087.71c0,-730.19 -907.24,-1325.52 -2026.52,-1325.52 -1119.18,0 -2026.42,595.33 -2026.42,1325.52 0,18.78 -0.24,70.9 -0.24,77.58 0,774.64 793,1402.01 2026.42,1402.01 1241.01,0 2026.75,-627.24 2026.75,-1401.91l0 -77.68z"/>
   <path class="fil2" d="M5408.87 3087.04c0,688.39 -872.36,1246.51 -1948.43,1246.51 -1076.24,0 -1948.6,-558.12 -1948.6,-1246.51 0,-688.53 872.36,-1246.48 1948.6,-1246.48 1076.07,0 1948.43,557.96 1948.43,1246.48z"/>
   <path class="fil3" d="M2813.41 2693.76c-1.08,2.02 -20.48,22.03 -7.86,38.22 30.8,39.26 125.65,61.87 221.82,40.34 57.11,-12.85 130.41,-71.17 201.44,-127.57 76.88,-61.06 153.28,-122.34 230.02,-146.73 81.3,-25.84 133.27,-14.64 167.68,-4.28 37.84,11.19 82.1,36.06 152.9,89.25 133.41,100.18 669.47,568.07 762.06,648.99 74.62,-33.66 406.13,-176.45 856.78,-275.72 -39.16,-240.23 -185.28,-459.89 -406.97,-639.82 -308.81,129.7 -686.27,197.3 -1055.25,17.14 -1.92,-0.84 -201.72,-95.33 -398.64,-90.7 -292.85,6.81 -419.72,133.54 -553.94,267.62l-170.04 183.27z"/>
   <path class="fil3" d="M4519.71 3282.88c-6.31,-5.6 -630.31,-551.68 -771.81,-657.93 -81.76,-61.39 -127.2,-76.98 -175.03,-83.18 -24.89,-3.2 -59.27,1.42 -83.32,8.1 -65.67,17.84 -151.72,75.32 -228.13,135.9 -79,62.95 -153.61,122.31 -222.62,137.66 -88.41,19.9 -196.35,-3.44 -245.6,-36.77 -20,-13.42 -33.93,-28.9 -40.72,-44.73 -18.21,-42.13 15.35,-75.8 20.81,-81.53l172.2 -186.23c20.11,-19.97 40.24,-39.97 60.92,-59.61 -55.55,7.15 -106.96,21.42 -156.95,35.35 -62.47,17.47 -122.45,34.14 -183.13,34.14 -25.33,0 -161.24,-22.27 -186.94,-29.28 -155.91,-42.7 -292.62,-84.23 -496.93,-179.55 -244.89,182.18 -408.66,410.17 -455.88,661.14 35.12,9.27 91.85,26.17 115.66,31.44 554.04,123.15 726.61,250.12 757.88,276.66 33.93,-37.74 82.84,-61.66 137.32,-61.66 61.29,0.13 116.64,30.96 150.17,78.56 31.77,-25.13 75.46,-46.55 132.09,-46.55 25.7,0 52.25,4.76 79.27,13.94 62.47,21.42 94.72,63.08 111.49,100.78 20.94,-9.51 46.65,-16.42 77.11,-16.42 29.75,0 60.82,6.78 92.12,20.34 102.11,43.92 118.02,144.13 108.75,219.79 7.25,-0.81 14.64,-1.18 22.02,-1.18 121.13,0.14 219.66,98.53 219.66,219.79 0,37.48 -9.65,72.69 -26.28,103.63 32.96,18.59 116.94,60.48 190.75,51.17 58.9,-7.49 81.26,-27.59 89.22,-38.89 5.5,-7.85 11.34,-16.9 5.97,-23.44l-156.38 -173.75c0,0 -25.7,-24.25 -17.23,-33.67 8.8,-9.65 24.76,4.15 35.92,13.56 79.61,66.52 176.82,166.74 176.82,166.74 1.55,1.04 7.99,13.79 43.92,20.2 30.93,5.6 85.67,2.4 123.52,-28.77 9.65,-7.85 19.16,-17.64 27.12,-27.72 -0.57,0.47 -1.04,1.04 -1.65,1.28 39.87,-51.17 -4.42,-102.91 -4.42,-102.91l-182.52 -204.92c0,0 -26.17,-24.05 -17.27,-33.8 8,-8.44 24.76,4.28 36.2,13.79 57.71,48.34 139.45,130.2 217.63,206.94 15.35,11.06 84.13,53.67 175.17,-6.17 55.22,-36.2 66.29,-80.69 64.87,-114.35 -3.95,-44.52 -38.56,-76.16 -38.56,-76.16l-249.44 -250.63c0,0 -26.28,-22.5 -17,-33.9 7.62,-9.52 24.76,4.28 35.92,13.69 79.5,66.39 294.51,263.45 294.51,263.45 3,2.25 77.24,55.08 169.09,-3.34 32.86,-21.05 53.8,-52.59 55.59,-89.36 3.11,-63.79 -41.89,-101.63 -41.89,-101.63z"/>
   <path class="fil3" d="M3310.47 3600.63c-38.69,-0.47 -80.92,22.5 -86.39,19.16 -3.1,-2.02 2.26,-17.47 5.94,-26.51 3.68,-8.94 54.61,-162.08 -69.49,-215.27 -94.95,-40.82 -153.04,5.13 -173.04,25.8 -5.23,5.5 -7.49,5.03 -8.06,-1.89 -1.92,-27.59 -14.3,-102.21 -96.27,-127.2 -117.12,-35.82 -192.44,45.94 -211.6,75.42 -8.57,-66.75 -64.97,-118.63 -134.11,-118.63 -75.09,-0.1 -136.01,60.68 -136.11,135.77 0,75.08 60.79,136.04 136.01,136.04 36.53,0.1 69.48,-14.54 94.01,-37.98 0.71,0.71 1.08,2.02 0.57,4.66 -5.56,33.56 -16.15,155.77 111.75,205.49 51.41,20 94.96,5.13 131.25,-20.21 10.73,-7.62 12.52,-4.41 10.96,5.7 -4.65,31.41 1.18,98.77 95.56,136.95 71.74,29.18 114.22,-0.57 142.08,-26.28 12.14,-11.06 15.45,-9.27 16.06,7.72 3.44,90.91 78.89,163.16 170.65,163.26 94.58,0.14 171.22,-76.4 171.22,-170.88 0,-94.48 -76.5,-170.04 -170.99,-171.12z"/>
   <path class="fil1" d="M3310.47 3930.46c-85.67,-0.14 -155.3,-66.65 -158.5,-151.49 -0.14,-7.25 -0.94,-26.65 -17.27,-26.65 -6.64,0 -12.61,4.05 -19.26,10.12 -18.93,17.47 -42.84,35.22 -77.96,35.22 -15.82,0 -33.09,-3.68 -51.27,-11.06 -90.44,-36.66 -91.65,-98.77 -88.08,-123.76 1.08,-6.68 1.42,-13.69 -3.2,-19.03l-5.6 -5.02 -5.6 0c-4.62,0 -9.27,1.92 -15.69,6.44 -26.2,18.31 -51.31,27.25 -76.87,27.25 -14.07,0 -28.44,-2.73 -42.84,-8.33 -119.14,-46.42 -109.73,-158.74 -103.89,-192.68 0.84,-6.78 -0.84,-12.14 -5.13,-15.69l-8.44 -6.91 -7.86 7.49c-23.34,22.5 -53.57,34.64 -85.57,34.64 -68.17,0 -123.62,-55.45 -123.62,-123.62 0,-68.31 55.59,-123.66 123.86,-123.66 61.66,0 114.14,46.42 121.97,107.94l4.28 33.19 18.21 -28.06c2.03,-3.24 52.02,-78.8 143.87,-78.8 17.51,0 35.59,2.87 53.67,8.47 73.3,22.36 85.68,88.75 87.6,116.48 1.32,16.09 12.85,16.9 14.97,16.9 6.44,0 11.06,-4.05 14.4,-7.49 13.8,-14.4 43.92,-38.42 91.04,-38.42 21.52,0.1 44.49,5.23 68.17,15.35 116.37,49.95 63.55,197.87 62.94,199.42 -9.98,24.52 -10.32,35.35 -0.94,41.66l4.52 2.12 3.48 0c5.23,0 11.77,-2.26 22.46,-5.94 15.86,-5.46 39.77,-13.69 62.13,-13.69l0.1 0c87.6,0.98 158.88,72.35 158.88,158.98 -0.14,87.47 -71.41,158.64 -158.98,158.64zm1233.39 -712.92c-192.31,-167.78 -636.52,-554.04 -756.8,-644.37 -68.78,-51.74 -115.66,-79 -156.85,-91.28 -18.45,-5.56 -44.02,-12.01 -76.97,-12.01 -30.59,0 -63.55,5.6 -97.82,16.43 -77.82,24.62 -155.3,86.25 -230.15,145.75l-3.91 3.1c-69.76,55.45 -141.97,112.8 -196.49,125.08 -23.91,5.36 -48.43,8.09 -72.82,8.09 -61.15,0 -116.14,-17.74 -136.71,-43.92 -3.34,-4.42 -1.18,-11.43 6.78,-21.55l1.07 -1.28 169.1 -182.32c132.43,-132.43 257.61,-257.51 545.57,-264.05 4.79,-0.14 9.55,-0.24 14.4,-0.24 179.21,0.1 358.43,80.32 378.53,89.59 168.01,82 341.53,123.66 515.99,123.76 181.71,0.14 369.23,-44.86 566.42,-135.67 -22.03,-18.55 -45,-36.53 -68.54,-54.24 -173.14,75.08 -338.2,113.04 -497.41,113.04 -162.69,-0.24 -325.1,-39.27 -482.9,-116.24 -8.33,-3.95 -206.23,-97.25 -412.09,-97.35 -5.33,0 -10.83,0.1 -16.16,0.23 -241.92,5.6 -378.2,91.52 -469.94,166.7 -88.98,2.26 -165.86,23.68 -234.3,42.84 -61.05,16.9 -113.75,31.67 -165.15,31.67 -21.18,0 -59.4,-2.02 -62.74,-2.02 -59.13,-1.79 -357.08,-74.99 -594.01,-164.71 -24.15,17.14 -47.49,34.88 -70.09,52.86 247.52,101.5 548.71,180.03 643.77,186.23 26.55,1.65 54.75,4.62 82.95,4.76 62.84,0 125.65,-17.61 186.36,-34.65 35.93,-10.12 75.43,-21.05 117.08,-29.04 -11.06,10.96 -22.12,22.03 -33.32,33.09l-171.83 185.86c-13.46,13.69 -42.84,50.13 -23.55,94.99 7.72,18.08 23.41,35.45 45.2,50.19 40.95,27.49 114.25,46.18 182.42,46.18 25.71,0.14 50.23,-2.5 72.73,-7.49 71.98,-16.19 147.54,-76.4 227.62,-140.05 63.79,-50.6 154.36,-114.96 223.71,-133.88 19.43,-5.23 43.21,-8.57 62.37,-8.57 5.7,0.1 11.06,0.24 16.05,0.94 45.94,5.84 90.2,21.42 169.33,80.82 141.03,105.88 765.17,651.96 771.24,657.33 0.47,0.37 40.21,34.64 37.48,91.75 -1.42,31.78 -19.16,60.07 -49.86,79.6 -26.65,17 -54.14,25.57 -81.86,25.57 -41.76,-0.1 -70.47,-19.63 -72.35,-20.91 -2.26,-1.92 -216.09,-198.04 -294.75,-263.85 -12.61,-10.32 -24.76,-19.73 -37.14,-19.73 -6.54,0 -12.38,2.73 -16.29,7.72 -12.38,15.25 1.42,36.43 17.85,50.23l249.78 251.06c0.33,0.27 31.16,29.18 34.5,67.73 1.89,41.52 -17.98,76.4 -59.4,103.52 -29.38,19.39 -59.23,29.28 -88.51,29.28 -38.32,0 -65.24,-17.5 -71.17,-21.65l-35.82 -35.22c-65.57,-64.53 -133.14,-131.15 -182.65,-172.43 -12.01,-10.02 -24.99,-19.29 -37.24,-19.29 -6.08,0 -11.54,2.26 -15.72,6.67 -5.6,6.31 -9.65,17.61 4.52,36.3 5.84,7.62 12.62,14.04 12.62,14.04l182.32 204.68c1.42,1.89 37.48,44.73 4.05,87.33l-6.44 8.23c-5.46,6.08 -11.3,11.54 -16.9,16.29 -31.17,25.57 -72.69,28.33 -89.12,28.33 -8.8,0 -17.27,-0.74 -24.63,-2.16 -17.98,-3.2 -30.12,-8.19 -35.96,-15.11l-2.12 -2.26c-10.01,-10.35 -101.87,-104.13 -177.9,-167.54 -10.02,-8.47 -22.5,-19.06 -35.45,-19.06 -6.44,0 -12.04,2.53 -16.43,7.39 -15.11,16.43 7.49,41.05 17.13,50.09l155.41 171.5c-0.14,1.55 -2.16,4.99 -5.84,10.45 -5.6,7.76 -24.53,26.55 -80.92,33.7 -6.64,0.81 -13.66,1.18 -20.57,1.18 -58.19,0 -120.19,-28.2 -152.2,-45.23 14.64,-30.7 22.12,-64.49 22.12,-98.4 0.14,-128.04 -103.89,-232.17 -231.8,-232.17 -2.73,0 -5.7,0 -8.33,0.13 4.15,-58.42 -4.15,-168.99 -117.69,-217.77 -32.72,-14.17 -65.2,-21.32 -96.98,-21.32 -24.76,0 -48.68,4.28 -71.04,12.85 -23.58,-45.67 -62.61,-79 -113.54,-96.37 -28.2,-9.75 -56.16,-14.74 -83.28,-14.74 -47.26,0 -90.67,13.9 -129.6,41.63 -37.24,-46.28 -93.4,-73.77 -152.56,-73.77 -51.74,0 -101.6,20.81 -138.5,57.35 -48.3,-37.01 -240.37,-158.84 -754.07,-275.59 -24.89,-5.6 -82,-22.02 -116.98,-32.24 -5.84,27.86 -10.26,55.93 -13.22,84.26 0,0 94.85,22.73 113.4,26.88 524.9,116.61 698.41,237.88 727.69,260.71 -10.01,23.91 -15.11,49.62 -15.11,75.59 -0.14,108.38 88.04,196.69 196.56,196.79 12.14,0 24.18,-1.04 36.06,-3.3 16.33,79.84 68.54,140.29 148.38,171.36 23.35,9.04 46.89,13.56 70.09,13.56 15.01,0.1 29.99,-1.79 44.76,-5.6 14.74,37.48 47.83,84.13 122.08,114.25 25.94,10.46 52.01,15.92 77.24,15.92 20.57,0 40.82,-3.68 59.97,-10.7 35.59,86.52 120.18,143.87 214.43,143.87 62.34,0 122.45,-25.33 166.13,-70.43 37.47,20.81 116.47,58.53 196.31,58.66 10.36,0 20.14,-0.85 29.75,-1.93 79.27,-10.12 116.27,-41.05 133.18,-65.2 3.1,-4.15 5.83,-8.67 8.19,-13.32 18.69,5.36 39.3,9.75 62.84,9.88 43.31,0 84.97,-14.77 126.96,-45.34 41.29,-29.88 70.56,-72.59 74.85,-108.88 0,-0.47 0.14,-1.08 0.24,-1.68 13.8,3 28.1,4.41 42.37,4.41 44.63,0 88.55,-13.93 130.44,-41.42 80.79,-52.95 94.82,-122.21 93.5,-167.54 14.17,2.97 28.57,4.52 42.97,4.52 41.9,0 82.95,-12.61 122.21,-37.61 50.09,-32.01 80.21,-81.02 84.83,-138.13 3.11,-38.79 -6.54,-77.96 -27.02,-111.52 135.57,-58.42 445.19,-171.36 809.66,-253.6 -2.13,-28.2 -6.28,-56.16 -11.3,-83.89 -441.11,97.82 -770.26,240.27 -852.73,277.04z"/>
   <path class="fil1" d="M12210.38 2768.88c-35.58,47.12 -86.28,70.7 -152.7,70.7 -66.28,0 -117.18,-23.58 -153,-70.7 -35.83,-46.99 -53.67,-114.11 -53.67,-200.97 0,-86.62 17.84,-153.51 53.67,-200.4 35.82,-46.76 86.72,-70.2 153,-70.2 66.42,0 117.12,23.44 152.7,70.2 35.45,46.89 53.3,113.78 53.3,200.4 0,86.85 -17.85,153.98 -53.3,200.97zm181.21 -525.71c-73.06,-91.65 -184.21,-137.45 -333.17,-137.45 -148.89,0 -259.9,45.81 -332.96,137.45 -73.2,91.62 -109.83,199.9 -109.83,324.74 0,127.2 36.63,235.85 109.83,326.28 73.07,90.19 184.07,135.43 332.96,135.43 148.96,0 260.11,-45.24 333.17,-135.43 73.2,-90.44 109.73,-199.09 109.73,-326.28 0,-124.84 -36.53,-233.12 -109.73,-324.74z"/>
   <path class="fil1" d="M10407 2661.89c-1.52,76.03 -23.31,128.42 -65.21,157.09 -41.76,28.77 -87.47,43.18 -137.09,43.18 -31.4,0 -57.95,-8.8 -79.84,-26.04 -21.89,-17.27 -32.72,-45.34 -32.72,-84.13 0,-43.58 17.85,-75.69 53.53,-96.51 21.32,-12.14 56.06,-22.63 104.6,-30.97l51.77 -9.61c25.84,-4.89 46.18,-10.12 60.92,-15.72 15.01,-5.46 29.52,-12.61 44.02,-21.79l0 84.5zm115.19 -495.38c-74.1,-37.61 -158.98,-56.63 -254.54,-56.63 -146.83,0 -250.49,38.42 -310.8,114.82 -37.95,49.02 -59.27,111.52 -64.26,187.55l219.43 0c5.36,-33.56 16.19,-60.11 32.38,-79.74 22.6,-26.65 61.02,-39.87 115.53,-39.87 48.54,0 85.34,6.68 110.44,20.38 24.99,13.42 37.61,38.08 37.61,73.63 0,29.28 -16.32,50.84 -49.05,64.73 -18.18,8 -48.54,14.54 -90.91,19.9l-77.82 9.61c-88.31,11.06 -155.4,29.75 -200.87,55.83 -83.05,47.84 -124.47,125.18 -124.47,232.04 0,82.34 25.56,146.13 77.34,190.99 51.54,45 117.08,63.79 196.22,67.46 496.12,22.27 490.52,-261.42 495.15,-320.45l0 -326.42c0,-104.7 -37.25,-175.97 -111.39,-213.83z"/>
   <path class="fil1" d="M9390.87 2304.4c56.73,0 98.39,17.51 125.28,52.49 18.45,25.94 29.98,55.22 34.54,87.57l244.65 0c-13.32,-123.52 -56.67,-209.68 -129.59,-258.59 -73.06,-48.54 -166.84,-73.06 -281.42,-73.06 -134.83,0 -240.74,41.42 -317.24,124 -76.64,82.81 -114.96,198.47 -114.96,347.13 0,131.59 34.61,238.92 103.99,321.63 69.38,82.71 177.66,123.99 324.63,123.99 147.21,0 258.35,-49.48 333.2,-148.62 46.99,-61.53 73.3,-126.73 78.9,-195.64l-243.95 0c-5.02,45.57 -19.16,82.71 -42.83,111.38 -23.58,28.44 -63.21,42.84 -119.38,42.84 -78.9,0 -132.67,-35.92 -161.24,-108.14 -15.72,-38.56 -23.55,-89.49 -23.55,-153.04 0,-66.52 7.83,-119.95 23.55,-160.29 29.65,-75.69 84.84,-113.64 165.42,-113.64z"/>
   <path class="fil1" d="M8886.52 2112.77c-502.77,0 -473.02,445.19 -473.02,445.19l0 452.17 228.13 0 0 -424.1c0,-69.49 8.8,-121.03 26.17,-154.46 31.3,-59.27 92.45,-89.02 183.73,-89.02 6.91,0 15.95,0.37 27.02,0.84 11.2,0.47 23.78,1.55 38.32,3.21l0 -232.15c-10.12,-0.61 -16.8,-0.97 -19.53,-1.21 -2.97,-0.24 -6.54,-0.47 -10.83,-0.47z"/>
   <path class="fil1" d="M7741.78 2349.06c32.14,-32.99 77.11,-49.52 135.29,-49.52 53.57,0 98.29,15.48 134.49,46.75 36.02,31.07 56.16,76.88 60.31,136.85l-390.44 0c8.23,-56.4 28.33,-101.02 60.35,-134.08zm306.65 424.81c-9.52,13.66 -19.87,25.33 -31.17,34.5 -32.25,26.51 -76.03,34.61 -127.58,34.61 -48.77,0 -86.85,-7.36 -121.36,-29.15 -57.01,-34.98 -89.01,-94.25 -92.45,-181.24l631.28 0c0.94,-74.72 -1.55,-132.1 -7.62,-171.93 -10.49,-67.83 -33.56,-127.71 -68.91,-179.22 -39.4,-58.42 -89.49,-101.16 -149.8,-128.28 -60.45,-26.89 -128.28,-40.48 -203.74,-40.48 -127.1,0 -230.25,40.1 -309.86,120.08 -79.6,80.32 -119.61,195.27 -119.61,345.34 0,160.26 44.16,275.93 132.33,347 88.17,71.14 190.04,106.73 305.37,106.73 139.68,0 248.34,-42.13 325.92,-126.49 41.89,-44.26 68.2,-88.31 79.27,-131.49l-242.05 0z"/>
   <path class="fil1" d="M7355.99 3010l-208.36 0 0 -524.76c0,-47.97 -15.82,-161.98 -153.28,-161.98 -91.71,0 -158,66.05 -158,161.98l0 524.76 -208.63 0 0 -524.76c0,-47.97 -14.27,-161.98 -151.59,-161.98 -93.17,0 -158.03,66.05 -158.03,161.98l0 524.76 -208.49 0 0 -519.77c0,-216.69 143.62,-380.42 366.53,-380.42 110.67,0 200.63,46.38 259.16,120.76 61.53,-74.38 153.04,-120.76 259.06,-120.76 227.42,0 361.64,157.19 361.64,380.42l0 519.77z"/>
   <path class="fil1" d="M11274.1 2770.77c-33.33,47.73 -82.24,71.65 -146.26,71.65 -64.26,0 -111.96,-24.15 -143.49,-72.02 -31.54,-48.07 -47.25,-117.92 -47.25,-198 0,-74.14 15.35,-136.38 46.41,-186.47 30.93,-49.99 79.5,-75.08 145.89,-75.08 43.44,0 81.63,13.69 114.48,41.29 53.54,45.57 80.32,127.47 80.32,233.36 0,75.8 -16.66,137.55 -50.09,185.28zm273.7 -932c0,0 -229.91,-24.63 -229.91,160.06l-0.1 244.31c-25.47,-40.81 -58.56,-72.72 -99.37,-95.69 -40.72,-23.07 -87.33,-34.61 -139.96,-34.61 -113.98,0 -204.78,42.37 -272.95,127.2 -68.21,84.84 -102.11,207.04 -102.11,354.96 0,128.28 34.5,233.49 103.62,315.36 69.15,81.86 204.92,117.69 325.34,117.69 420.06,0 415.2,-360.21 415.2,-360.21l0.24 -829.05z"/>
   <path class="fil1" d="M8629.15 3679.26c31.78,-32.72 76.5,-49.01 133.98,-49.01 53.09,0 97.48,15.35 133.27,46.27 35.82,30.83 55.69,76.17 59.87,135.67l-386.97 0c8.2,-55.92 28.2,-100.21 59.84,-132.93zm303.92 421.14c-9.51,13.56 -19.77,25.1 -30.93,34.14 -32.01,26.31 -77.11,36.06 -128.18,36.06 -48.17,0 -86.02,-7.25 -120.29,-28.9 -56.4,-34.75 -86.39,-95.09 -89.86,-181.34l625.68 0c0.84,-74 -1.52,-130.91 -7.59,-170.41 -10.36,-67.23 -33.23,-126.63 -68.31,-177.67 -39.16,-57.81 -88.68,-100.18 -148.52,-127.1 -59.84,-26.74 -127.2,-40.07 -201.95,-40.07 -126.02,0 -228.23,39.6 -307.23,118.97 -78.8,79.51 -118.43,193.49 -118.43,342.37 0,158.84 43.82,273.46 131.28,343.89 87.33,70.57 188.36,105.79 302.61,105.79 138.4,0 246.07,-41.9 322.94,-125.42 41.52,-43.92 67.6,-87.47 78.66,-130.31l-239.9 0z"/>
   <path class="fil1" d="M7459.48 4098.41c-31.64,47.93 -79.37,71.84 -143.49,71.84 -64.13,0 -113.04,-23.68 -146.36,-71.51 -33.42,-47.7 -50.09,-109.36 -50.09,-185.25 0,-105.92 26.75,-181.71 80.32,-227.42 32.96,-27.36 71.04,-41.29 114.48,-41.29 66.29,0 114.92,25.1 145.89,75.19 31.03,49.99 46.65,112.22 46.65,186.36 0,80.08 -15.85,143.97 -47.39,192.07zm-94.25 -651.53c-52.45,0 -99.11,11.44 -139.92,34.51 -40.82,23.1 -74.01,54.98 -99.48,95.79l0 -410.41c0,0 -229.68,-22.73 -229.68,163.97l0 665.09c0,0 -4.75,360.31 415.3,360.31 120.42,0 256.09,-36.06 325.34,-117.82 69.01,-81.86 103.66,-186.94 103.66,-315.22 0,-147.91 -34.04,-264.29 -102.24,-349.02 -67.93,-84.97 -158.97,-127.2 -272.99,-127.2z"/>
   <path class="fil1" d="M8293.96 3445.84c-2.97,-0.1 -6.41,-0.34 -10.7,-0.34 -502.9,0 -473.01,445.15 -473.01,445.15l0 445.06 228.09 0 0 -417.23c0,-69.35 8.8,-120.89 26.31,-154.32 31.17,-59.27 92.46,-89.02 183.6,-89.02 7.01,0 15.95,0.37 27.02,0.95 11.2,0.47 23.91,1.45 38.22,3.1l0 -232.17c-10.02,-0.58 -16.66,-0.94 -19.53,-1.18z"/>
   <path class="fil1" d="M6109.58 3330l0 1004.12 214.09 0 0 -1167.85c0,0 -214.09,-8.7 -214.09,163.73z"/>
   <polygon class="fil1" points="6727.84,3391.56 6498.63,3391.56 6498.63,3164.66 6727.84,3164.66 "/>
   <polygon class="fil1" points="6498.63,4335.71 6728.31,4335.71 6728.31,3469.18 6498.63,3469.18 "/>
  </g>
 </g>
</svg>
